<svg width="44" height="44" viewBox="0 0 44 44" fill="none" xmlns="http://www.w3.org/2000/svg">
    <circle cx="22" cy="22" r="21.5" fill="#FCE1B6" stroke="#2F4250"/>
    <path d="M36.8156 7.97727C37.1943 8.36021 37.3227 8.75328 37.3227 9.28656C37.3201 9.38374 37.3201 9.38374 37.3175 9.4829C37.3159 9.58519 37.3159 9.58519 37.3143 9.68955C37.3009 10.2497 37.241 10.7816 37.125 11.3288C37.1147 11.3811 37.1043 11.4333 37.0937 11.4871C36.8309 12.8057 36.3947 14.0803 35.805 15.2888C35.7793 15.3423 35.7535 15.3957 35.727 15.4508C35.1175 16.7046 34.3844 17.8971 33.495 18.9738C33.4715 19.0025 33.4479 19.0312 33.4237 19.0607C32.6602 19.9879 31.8386 20.9221 30.8905 21.6641C30.7566 21.7697 30.6277 21.8797 30.4991 21.9917C30.0361 22.3932 29.5409 22.7464 29.04 23.0988C29.0038 23.1246 28.9676 23.1504 28.9303 23.177C27.6906 24.0602 26.3625 24.7987 25.0044 25.481C24.9479 25.5095 24.9479 25.5095 24.8903 25.5385C23.6172 26.1788 23.6172 26.1788 23.375 26.1788C23.3695 26.1392 23.364 26.0996 23.3583 26.0587C23.073 24.4312 22.1834 22.9649 21.065 21.7788C21.0308 21.7418 20.9967 21.7047 20.9615 21.6665C20.2102 20.8791 19.2318 20.2872 18.2299 19.8779C18.0521 19.8038 17.8812 19.7221 17.71 19.6338C17.7856 19.473 17.8725 19.3337 17.9779 19.1908C18.0092 19.1484 18.0405 19.1059 18.0727 19.0621C18.1229 18.9946 18.1229 18.9946 18.1741 18.9257C18.2261 18.8555 18.2261 18.8555 18.2791 18.7838C18.5271 18.4502 18.7803 18.1214 19.039 17.7961C19.1536 17.6519 19.2664 17.5065 19.3785 17.3604C19.9126 16.665 20.4771 16.0038 21.0663 15.3546C21.1684 15.2412 21.2681 15.1261 21.3675 15.0104C21.5472 14.8037 21.7403 14.6126 21.9354 14.4204C22.0417 14.3124 22.1398 14.2018 22.2372 14.0857C22.4263 13.8649 22.6382 13.6719 22.8539 13.4778C23.0156 13.332 23.172 13.1834 23.3235 13.027C23.531 12.8164 23.7553 12.6321 23.9858 12.4473C24.1434 12.3201 24.297 12.1891 24.451 12.0576C26.3184 10.5042 28.5152 9.32809 30.8 8.52383C30.8604 8.50238 30.8604 8.50238 30.922 8.48049C31.1549 8.39822 31.3891 8.32175 31.625 8.24883C31.6605 8.23781 31.6959 8.22678 31.7324 8.21543C32.2642 8.05226 32.8014 7.92964 33.3472 7.82258C33.4055 7.81099 33.4639 7.7994 33.524 7.78746C34.4683 7.60882 35.9996 7.34122 36.8156 7.97727Z" fill="#2F4250"/>
    <path d="M18.5349 16.2263C18.4454 16.5057 18.2776 16.7186 18.1052 16.9516C18.04 17.0406 17.9749 17.1297 17.9097 17.2188C17.8597 17.2868 17.8597 17.2868 17.8088 17.3562C17.686 17.5239 17.5645 17.6926 17.4432 17.8613C17.1329 18.2928 16.8186 18.7212 16.5027 19.1486C16.2225 19.5282 15.9475 19.9112 15.6749 20.2963C15.7296 20.307 15.7844 20.3178 15.8408 20.3289C17.0973 20.5916 18.3097 21.131 19.3049 21.9463C19.3338 21.9694 19.3627 21.9925 19.3925 22.0163C20.4167 22.8357 21.1872 23.83 21.7249 25.0263C21.7507 25.0826 21.7765 25.139 21.8031 25.1971C22.1944 26.092 22.465 27.0675 22.4399 28.0513C22.4892 28.0246 22.5386 27.9979 22.5894 27.9705C23.1032 27.694 23.6222 27.4303 24.1449 27.1713C25.0705 26.7122 25.0705 26.7122 25.9874 26.2363C26.3991 26.0181 26.8128 25.8042 27.2283 25.5934C27.3153 25.5487 27.3153 25.5487 27.4041 25.5031C27.4848 25.4624 27.4848 25.4624 27.5671 25.4209C27.6393 25.3843 27.6393 25.3843 27.7128 25.3469C27.7515 25.3318 27.7901 25.3168 27.8299 25.3013C27.8662 25.3194 27.9025 25.3376 27.9399 25.3563C27.8579 25.7015 27.7758 26.0467 27.6935 26.3919C27.6656 26.5089 27.6378 26.626 27.61 26.7431C27.47 27.3326 27.3285 27.9209 27.1695 28.5056C27.1046 28.7502 27.0446 28.9958 26.9847 29.2417C26.9504 29.3811 26.9159 29.5204 26.8814 29.6597C26.8582 29.7543 26.8353 29.8489 26.8127 29.9436C26.6266 30.7207 26.4443 31.3393 25.7399 31.7913C25.526 31.9215 25.3101 32.0479 25.0932 32.173C24.7766 32.3564 24.4643 32.547 24.152 32.7375C23.6046 33.0714 23.0554 33.402 22.5027 33.727C22.1309 33.9458 21.761 34.1675 21.3915 34.39C20.812 34.7388 20.2294 35.0818 19.645 35.4221C19.2681 35.642 18.8949 35.8665 18.5246 36.0972C18.0398 36.3921 17.6194 36.5033 17.0533 36.37C16.8749 36.2972 16.7835 36.2318 16.6649 36.0813C16.5765 35.8162 16.5768 35.6131 16.6821 35.3525C16.8216 35.1306 17.0128 34.9572 17.1996 34.7752C18.4298 33.572 19.0255 31.9332 19.0471 30.2306C19.0391 28.5282 18.252 27.0149 17.1049 25.7963C17.0725 25.7597 17.0401 25.7231 17.0067 25.6854C16.3234 24.9465 15.3191 24.4128 14.3549 24.1463C14.2814 24.1245 14.2814 24.1245 14.2064 24.1022C12.718 23.6737 10.994 23.8777 9.6249 24.5863C9.55524 24.6217 9.48556 24.6572 9.41586 24.6926C9.3819 24.7099 9.34795 24.7271 9.31297 24.7449C8.77058 25.02 8.31696 25.1464 7.6999 25.0813C7.50396 24.9884 7.50396 24.9884 7.3699 24.8613C7.32793 24.8227 7.28596 24.7841 7.24271 24.7444C7.08537 24.4763 7.06355 24.212 7.11789 23.9073C7.26493 23.4595 7.59939 23.1143 7.89573 22.7581C8.03831 22.5836 8.16776 22.4001 8.29888 22.217C8.44061 22.0206 8.58565 21.827 8.73115 21.6334C8.75915 21.5962 8.78714 21.559 8.81599 21.5206C8.87344 21.4442 8.9309 21.3678 8.98837 21.2914C9.07395 21.1775 9.15932 21.0635 9.24463 20.9494C9.53689 20.5586 9.83134 20.1697 10.1294 19.7832C10.3284 19.5249 10.5269 19.2662 10.7249 19.0072C10.7629 18.9575 10.801 18.9078 10.8402 18.8565C11.0571 18.5719 11.2668 18.2837 11.4708 17.9897C11.7997 17.5219 12.1569 17.207 12.7273 17.0758C12.8652 17.0538 13.0028 17.0362 13.1415 17.0203C13.2446 17.007 13.3477 16.9936 13.4508 16.9801C13.5271 16.9704 13.5271 16.9704 13.6049 16.9605C13.8087 16.9334 14.0113 16.9003 14.214 16.8656C14.2522 16.8591 14.2904 16.8527 14.3298 16.846C14.4152 16.8315 14.5007 16.8169 14.5861 16.8023C14.8826 16.7521 15.1792 16.7029 15.4758 16.6536C15.6503 16.6245 15.8248 16.5954 15.9993 16.5664C16.0652 16.5554 16.1311 16.5444 16.1989 16.5331C16.3216 16.5126 16.4443 16.4921 16.567 16.4716C16.9167 16.413 17.2666 16.3558 17.6171 16.3019C17.6633 16.2945 17.7096 16.2871 17.7573 16.2795C18.02 16.2393 18.2691 16.2184 18.5349 16.2263Z" fill="#2F4250"/>
    <path d="M30.9547 12.4671C31.263 12.7067 31.4802 12.9787 31.68 13.3127C31.7091 13.3611 31.7381 13.4095 31.7681 13.4594C32.0708 14.0589 32.044 14.8238 31.8691 15.4611C31.5764 16.2639 31.0644 16.7916 30.305 17.1627C30.1566 17.2163 30.0104 17.2612 29.8575 17.2998C29.755 17.3186 29.755 17.3186 29.7 17.3827C28.7767 17.4492 28.0473 17.2922 27.3285 16.6782C26.7445 16.1305 26.4664 15.4181 26.4275 14.6224C26.4663 13.8281 26.8777 13.1297 27.445 12.5977C27.6374 12.4485 27.8351 12.3268 28.05 12.2127C28.1136 12.1768 28.1136 12.1768 28.1785 12.1403C29.0669 11.7277 30.1734 11.9505 30.9547 12.4671Z" fill="#FCE1B6"/>
    <path d="M22.935 13.418C22.9713 13.4361 23.0076 13.4543 23.045 13.473C22.6638 13.8541 22.2827 14.2353 21.89 14.628C21.8537 14.6098 21.8174 14.5917 21.78 14.573C21.8999 14.442 22.0204 14.3115 22.1409 14.1811C22.1744 14.1445 22.2079 14.1079 22.2424 14.0702C22.4608 13.8346 22.6873 13.6226 22.935 13.418Z" fill="#2F4250"/>
    <path d="M19.91 16.666C19.9644 16.6842 20.0189 16.7023 20.075 16.721C19.9479 16.8662 19.8209 17.0114 19.69 17.161C19.6537 17.1429 19.6174 17.1247 19.58 17.106C19.6889 16.9608 19.7978 16.8156 19.91 16.666Z" fill="#2F4250"/>
    <path d="M21.45 14.9043C21.5045 14.9224 21.5589 14.9406 21.615 14.9593C21.5061 15.0682 21.3972 15.1771 21.285 15.2893C21.2487 15.2711 21.2124 15.253 21.175 15.2343C21.2658 15.1254 21.3565 15.0165 21.45 14.9043Z" fill="#2F4250"/>
    <path d="M17.655 34.2695C17.7095 34.2877 17.7639 34.3058 17.82 34.3245C17.7111 34.4334 17.6022 34.5423 17.49 34.6545C17.4537 34.6364 17.4174 34.6182 17.38 34.5995C17.4708 34.4906 17.5615 34.3817 17.655 34.2695Z" fill="#2F4250"/>
    <path d="M13.0899 25.2455C13.2256 25.3578 13.2526 25.4034 13.3099 25.5755C13.376 26.6094 13.376 26.6094 13.0899 26.9505C12.7639 27.2766 12.4025 27.425 11.9659 27.5486C11.6743 27.6336 11.4521 27.7447 11.2092 27.9257C11.1099 27.9955 11.1099 27.9955 10.9449 28.0505C10.8885 28.1449 10.8885 28.1449 10.8349 28.2705C10.7789 28.3649 10.7221 28.4587 10.6646 28.5522C10.4724 28.9523 10.5094 29.513 10.6218 29.9308C10.8964 30.7094 11.4902 31.3325 12.2142 31.717C12.8135 31.991 13.4918 32.0763 14.1281 31.8696C14.5951 31.6715 14.9677 31.3761 15.1799 30.9105C15.2361 30.7635 15.2887 30.6153 15.3415 30.4671C15.4944 30.0425 15.6455 29.738 16.0531 29.5115C16.2922 29.4174 16.5307 29.4026 16.7853 29.398C16.8225 29.397 16.8598 29.396 16.8981 29.3949C17.1748 29.3984 17.3308 29.4753 17.5449 29.6455C17.8211 29.9312 17.7849 30.3612 17.7859 30.7369C17.7626 31.8502 17.2911 32.9832 16.4999 33.7705C15.5927 34.5631 14.5077 34.9338 13.31 34.8809C13.0664 34.858 12.8649 34.7604 12.6499 34.6505C12.1729 34.4335 12.1729 34.4335 11.6599 34.4305C11.2022 34.6349 10.8388 35.0547 10.48 35.3953C10.2829 35.5812 10.0767 35.7565 9.87078 35.9324C9.77278 36.0161 9.6748 36.0999 9.57682 36.1836C9.54334 36.2122 9.50985 36.2408 9.47535 36.2703C9.28081 36.4369 9.08902 36.6059 8.89964 36.7783C8.66646 36.9901 8.42434 37.1887 8.17948 37.3868C8.03427 37.5069 7.89425 37.6311 7.75495 37.758C7.51845 37.9736 7.27319 38.1756 7.02448 38.3768C6.87927 38.4969 6.73925 38.6211 6.59995 38.748C6.36345 38.9636 6.11819 39.1656 5.86948 39.3668C5.72427 39.4869 5.58425 39.6111 5.44495 39.738C5.20752 39.9544 4.96165 40.1577 4.71169 40.3594C4.57166 40.475 4.43754 40.595 4.3037 40.7177C3.82818 41.144 3.41472 41.2175 2.78411 41.2078C2.54304 41.1929 2.40306 41.1581 2.19995 41.0305C2.1455 40.9488 2.1455 40.9488 2.08995 40.8655C2.12987 40.8257 2.16978 40.7858 2.21091 40.7448C2.30645 40.6491 2.40174 40.5532 2.49665 40.4569C2.7357 40.2151 2.97699 39.981 3.23507 39.7597C3.38282 39.6313 3.52712 39.4993 3.6712 39.3668C3.69931 39.3409 3.72741 39.3151 3.75637 39.2885C3.81398 39.2355 3.87157 39.1825 3.92915 39.1295C4.06638 39.0032 4.20398 38.8774 4.34151 38.7515C4.51473 38.5928 4.68764 38.4339 4.85993 38.2743C5.14068 38.0142 5.4218 37.7557 5.71136 37.5054C5.87243 37.363 6.02982 37.2167 6.18745 37.0705C6.37791 36.8939 6.56841 36.7179 6.76495 36.548C6.99124 36.3523 7.21004 36.1487 7.42946 35.9454C7.61004 35.7782 7.79162 35.6122 7.97495 35.448C8.06667 35.3656 8.15833 35.2831 8.24995 35.2005C8.27862 35.1747 8.30729 35.1489 8.33683 35.1223C8.98672 34.5909 8.98672 34.5909 9.41526 33.9011C9.40203 33.6629 9.3426 33.5634 9.18495 33.3855C8.96007 33.2234 8.76614 33.1851 8.49702 33.2263C8.06822 33.3802 7.73062 33.7851 7.41936 34.1059C7.27992 34.2456 7.13092 34.3726 6.9813 34.5012C6.87743 34.5933 6.77971 34.689 6.68245 34.788C6.52025 34.9528 6.35034 35.1047 6.17542 35.2557C5.90901 35.4888 5.65017 35.7305 5.38995 35.9705C5.36092 35.9973 5.33188 36.024 5.30197 36.0516C5.0298 36.3026 4.75777 36.5537 4.48632 36.8054C4.45515 36.8343 4.42399 36.8631 4.39188 36.8929C4.33337 36.947 4.2749 37.0013 4.21649 37.0556C4.06251 37.1981 3.9064 37.3376 3.7479 37.4751C3.51006 37.6823 3.28104 37.8982 3.05245 38.1155C2.75573 38.3976 2.45487 38.6729 2.14495 38.9405C2.07389 39.0024 2.00284 39.0642 1.93183 39.1261C1.71575 39.3141 1.56812 39.3466 1.28321 39.3457C1.07063 39.3122 0.972577 39.2019 0.824951 39.0505C0.842337 38.7522 1.01484 38.6062 1.21339 38.4043C1.28401 38.3306 1.35462 38.2569 1.42522 38.1832C1.46218 38.145 1.49914 38.1068 1.53721 38.0675C1.7222 37.8756 1.90416 37.6809 2.08651 37.4865C2.16062 37.4077 2.23474 37.329 2.30888 37.2503C2.85367 36.6718 3.39698 36.092 3.93511 35.5072C4.07157 35.359 4.20828 35.211 4.34495 35.063C4.39988 35.0035 4.45481 34.944 4.50974 34.8845C4.62042 34.7646 4.73114 34.6447 4.84188 34.5248C5.1076 34.2372 5.373 33.9493 5.63745 33.6605C5.8738 33.4024 6.11061 33.1447 6.34845 32.888C6.49476 32.73 6.6402 32.5713 6.7845 32.4114C6.82965 32.3617 6.82965 32.3617 6.87572 32.311C6.93378 32.247 6.99161 32.1828 7.04918 32.1184C7.11721 32.0437 7.18833 31.9718 7.25995 31.9005C7.29625 31.9005 7.33255 31.9005 7.36995 31.9005C7.38569 31.8681 7.40143 31.8357 7.41765 31.8023C7.47995 31.6805 7.47995 31.6805 7.53882 31.5879C7.78172 31.184 7.75278 30.7181 7.64495 30.2711C7.44094 29.3509 7.60722 28.3361 8.06132 27.5126C8.79331 26.3766 9.95247 25.5242 11.2744 25.2204C12.6346 24.9303 12.6346 24.9303 13.0899 25.2455Z" fill="#2F4250"/>
    <path d="M13.7107 35.0259C13.832 35.0258 13.9533 35.0248 14.0746 35.0237C14.1514 35.0236 14.2283 35.0235 14.3051 35.0234C14.3753 35.0232 14.4454 35.023 14.5177 35.0227C14.685 35.0361 14.685 35.0361 14.795 35.1461C14.8207 35.2703 14.8207 35.2703 14.795 35.4211C14.6971 35.5408 14.6047 35.6399 14.4925 35.7442C14.462 35.7735 14.4315 35.8028 14.4002 35.8329C14.1714 36.0514 13.9362 36.2615 13.695 36.4661C13.5595 36.5827 13.4244 36.6997 13.2893 36.8167C13.2534 36.8478 13.2175 36.8789 13.1804 36.9109C12.9309 37.1272 12.6844 37.3465 12.4396 37.568C12.1981 37.7861 11.9525 37.9995 11.7047 38.2104C11.3851 38.4825 11.0679 38.7561 10.7593 39.0408C10.7322 39.0658 10.705 39.0909 10.6769 39.1167C10.6013 39.1865 10.5256 39.2563 10.45 39.3261C9.89072 39.8415 9.38909 40.1821 8.6109 40.1683C8.56124 40.1684 8.51157 40.1686 8.46041 40.1688C8.15247 40.1664 7.88545 40.1278 7.58997 40.0411C7.62156 39.8483 7.68456 39.7636 7.82737 39.6327C7.86491 39.5979 7.90245 39.5631 7.94113 39.5273C7.98065 39.4915 8.02018 39.4557 8.0609 39.4189C8.11796 39.3662 8.11796 39.3662 8.17617 39.3124C8.40145 39.1052 8.63085 38.9031 8.86169 38.7021C9.01481 38.5672 9.16334 38.4276 9.31215 38.288C9.58294 38.0355 9.86282 37.7991 10.1515 37.5672C10.3036 37.4406 10.441 37.305 10.5784 37.163C10.7096 37.0312 10.85 36.9111 10.9907 36.7896C11.1236 36.6742 11.2544 36.5566 11.385 36.4386C11.5441 36.2949 11.7039 36.1524 11.8662 36.0123C12.12 35.7919 12.3643 35.5611 12.6089 35.3306C12.641 35.3005 12.6731 35.2703 12.7063 35.2393C12.7496 35.1985 12.7496 35.1985 12.7938 35.1568C13.0355 34.9482 13.4076 35.0259 13.7107 35.0259Z" fill="#F89254"/>
    <path d="M7.03996 36.3008C7.03996 36.4658 7.03996 36.4658 6.94714 36.5766C6.88419 36.6375 6.88419 36.6375 6.81996 36.6995C6.75211 36.7653 6.75211 36.7653 6.68289 36.8323C6.52792 36.9767 6.36955 37.1161 6.20873 37.2538C6.10855 37.3426 6.01571 37.4352 5.92277 37.5314C5.76706 37.6903 5.60154 37.8291 5.42777 37.968C5.21906 38.1357 5.02687 38.3091 4.83996 38.5008C4.65948 38.6858 4.4754 38.8526 4.27277 39.013C3.90164 39.3086 3.57517 39.6461 3.24496 39.9858C3.19051 39.9676 3.13606 39.9495 3.07996 39.9308C3.26641 39.7391 3.45459 39.5517 3.65746 39.3773C3.8782 39.187 4.09102 38.9888 4.30371 38.7895C4.76672 38.3559 5.22994 37.923 5.70943 37.5076C5.90277 37.3363 6.09138 37.1599 6.28074 36.9843C6.48696 36.7933 6.69573 36.6059 6.90847 36.4222C6.95352 36.3831 6.99778 36.343 7.03996 36.3008Z" fill="#2A3E4B"/>
    <path d="M2.69495 36.8516C2.69495 37.0464 2.66998 37.063 2.54005 37.1977C2.50727 37.2321 2.47449 37.2666 2.44072 37.3021C2.40551 37.3383 2.3703 37.3745 2.33401 37.4119C2.26263 37.4867 2.19131 37.5615 2.12003 37.6364C2.08589 37.6721 2.05175 37.7078 2.01658 37.7446C1.91281 37.8544 1.81324 37.9672 1.71526 38.0822C1.53839 38.2894 1.34321 38.4755 1.14507 38.6623C1.04215 38.7798 0.994396 38.8404 0.989951 38.9966C1.07358 39.1223 1.13058 39.1561 1.27784 39.1893C1.55321 39.1957 1.71846 39.1808 1.93183 38.9966C1.98582 38.9428 2.03903 38.8882 2.08995 38.8316C2.12625 38.8497 2.16255 38.8679 2.19995 38.8866C2.12904 38.9497 2.05797 39.0127 1.98683 39.0756C1.92748 39.1283 1.92748 39.1283 1.86694 39.182C1.67586 39.342 1.52592 39.3475 1.28321 39.3468C1.07063 39.3133 0.972577 39.203 0.824951 39.0516C0.842336 38.7532 1.01483 38.6073 1.21339 38.4053C1.28315 38.3326 1.3529 38.2598 1.42265 38.187C1.4595 38.149 1.49635 38.1109 1.53431 38.0717C1.73423 37.864 1.93069 37.6531 2.12776 37.4428C2.20127 37.3646 2.27481 37.2864 2.34841 37.2082C2.37951 37.1751 2.41061 37.1421 2.44266 37.108C2.52551 37.0212 2.60972 36.936 2.69495 36.8516Z" fill="#2A3E4B"/>
    <path d="M4.94998 34.375C5.00443 34.3932 5.05888 34.4113 5.11498 34.43C4.39553 35.2135 3.67371 35.9942 2.91498 36.74C2.91498 36.575 2.91498 36.575 3.03379 36.442C3.08659 36.3908 3.13982 36.3401 3.19342 36.2897C3.40904 36.0829 3.609 35.871 3.80423 35.645C4.00814 35.4123 4.22323 35.1898 4.43618 34.9655C4.61637 34.7747 4.79002 34.5836 4.94998 34.375Z" fill="#2A3E4B"/>
    <path d="M2.91497 40.041C2.95127 40.0592 2.98757 40.0773 3.02497 40.096C2.77087 40.3501 2.51677 40.6042 2.25497 40.866C2.47698 41.014 2.63871 41.0381 2.90208 41.0364C2.97546 41.0361 2.97546 41.0361 3.05032 41.0358C3.10094 41.0354 3.15156 41.0349 3.20372 41.0345C3.25519 41.0342 3.30666 41.034 3.35969 41.0337C3.48645 41.0331 3.61321 41.0322 3.73997 41.031C3.72182 41.0673 3.70367 41.1036 3.68497 41.141C3.29893 41.253 2.72672 41.2768 2.34778 41.1238C2.19997 41.031 2.19997 41.031 2.08997 40.866C2.36497 40.591 2.63997 40.316 2.91497 40.041Z" fill="#2A3E4B"/>
    <path d="M4.50996 38.6055C4.54626 38.6236 4.58256 38.6418 4.61996 38.6605C4.35348 38.9325 4.08387 39.1951 3.79474 39.4429C3.60291 39.6134 3.42418 39.797 3.24496 39.9805C3.19051 39.9623 3.13606 39.9442 3.07996 39.9255C3.30489 39.6942 3.53603 39.4748 3.78035 39.2642C4.02725 39.0488 4.26806 38.8265 4.50996 38.6055Z" fill="#2A3E4B"/>
    <path d="M8.36003 35.0898C8.41448 35.108 8.46893 35.1261 8.52503 35.1448C8.11165 35.5681 7.68399 35.9521 7.20503 36.2998C7.16873 36.2817 7.13243 36.2635 7.09503 36.2448C7.12708 36.2161 7.15912 36.1874 7.19214 36.1578C7.46466 35.9132 7.73602 35.6673 8.00597 35.4198C8.03481 35.3934 8.06365 35.367 8.09336 35.3397C8.22849 35.2167 8.22849 35.2167 8.36003 35.0898Z" fill="#2F4250"/>
    <path d="M2.69502 36.8516C2.69502 37.1347 2.45318 37.2975 2.26534 37.4944C2.20445 37.5602 2.20445 37.5602 2.14234 37.6273C2.10317 37.6687 2.064 37.7101 2.02364 37.7528C1.98763 37.791 1.95163 37.8291 1.91454 37.8684C1.81502 37.9516 1.81502 37.9516 1.65002 37.9516C1.79321 37.7991 1.93646 37.6467 2.07971 37.4944C2.1203 37.4512 2.16089 37.4079 2.20271 37.3634C2.24188 37.3218 2.28105 37.2801 2.32141 37.2372C2.37542 37.1797 2.37542 37.1797 2.43051 37.1211C2.51738 37.0298 2.60544 36.9402 2.69502 36.8516Z" fill="#2A3E4B"/>
    <path d="M3.73998 35.6953C3.77628 35.7316 3.81258 35.7679 3.84998 35.8053C3.54143 36.1139 3.23288 36.4224 2.91498 36.7403C2.91498 36.5753 2.91498 36.5753 3.03959 36.4365C3.0939 36.3838 3.14863 36.3316 3.20373 36.2797C3.39718 36.0949 3.57722 35.9084 3.73998 35.6953Z" fill="#2A3E4B"/>
    <path d="M1.595 38.0039C1.64945 38.0221 1.7039 38.0402 1.76 38.0589C1.485 38.3339 1.21 38.6089 0.934998 38.8839C0.981973 38.6362 1.12626 38.4972 1.29594 38.3202C1.32454 38.2897 1.35315 38.2592 1.38262 38.2278C1.45306 38.1528 1.52398 38.0783 1.595 38.0039Z" fill="#2A3E4B"/>
    <path d="M9.35002 34.1523C9.38632 34.1705 9.42262 34.1886 9.46002 34.2073C9.20695 34.5118 8.93951 34.7793 8.63502 35.0323C8.59872 35.0142 8.56242 34.996 8.52502 34.9773C8.79727 34.7051 9.06952 34.4328 9.35002 34.1523Z" fill="#2F4250"/>
    <path d="M2.91497 40.041C2.95127 40.0592 2.98757 40.0773 3.02497 40.096C2.77087 40.3501 2.51677 40.6042 2.25497 40.866C2.30942 40.9477 2.30942 40.9477 2.36497 41.031C2.2584 41.0104 2.2584 41.0104 2.14497 40.976C2.12682 40.9397 2.10867 40.9034 2.08997 40.866C2.36497 40.591 2.63997 40.316 2.91497 40.041Z" fill="#2A3E4B"/>
    <path d="M7.03986 36.3008C7.03986 36.4658 7.03986 36.4658 6.94318 36.5805C6.90021 36.6221 6.85725 36.6636 6.81298 36.7064C6.7681 36.7499 6.72323 36.7933 6.67699 36.8381C6.52721 36.9772 6.37481 37.1086 6.21486 37.2358C6.17856 37.2176 6.14226 37.1995 6.10486 37.1808C6.36042 36.9191 6.62121 36.6683 6.89871 36.4299C6.94705 36.3883 6.99477 36.3459 7.03986 36.3008Z" fill="#2A3E4B"/>
    <path d="M5.61 35.5293C5.66445 35.5474 5.7189 35.5656 5.775 35.5843C5.68711 35.6752 5.5988 35.7656 5.51031 35.8559C5.46118 35.9063 5.41204 35.9567 5.36142 36.0086C5.225 36.1343 5.225 36.1343 5.06 36.1893C5.06 36.153 5.06 36.1167 5.06 36.0793C5.0963 36.0793 5.1326 36.0793 5.17 36.0793C5.18134 36.0498 5.19269 36.0203 5.20437 35.9899C5.3119 35.8042 5.45502 35.6775 5.61 35.5293Z" fill="#2A3E4B"/>
    <path d="M7.75503 35.6445C7.77318 35.699 7.79133 35.7534 7.81003 35.8095C7.73256 35.8822 7.65454 35.9543 7.57628 36.0261C7.53289 36.0663 7.4895 36.1065 7.4448 36.1479C7.32106 36.2448 7.24814 36.2824 7.09503 36.3045C7.31503 36.0845 7.53503 35.8645 7.75503 35.6445Z" fill="#2A3E4B"/>
    <path d="M4.95001 34.375C5.00446 34.3932 5.05891 34.4113 5.11501 34.43C4.96981 34.5934 4.82461 34.7567 4.67501 34.925C4.62056 34.9068 4.56611 34.8887 4.51001 34.87C4.65521 34.7066 4.80041 34.5433 4.95001 34.375Z" fill="#2A3E4B"/>
    <path d="M6.16003 33.1055C6.19633 33.1236 6.23263 33.1418 6.27003 33.1605C6.14298 33.3057 6.01593 33.4509 5.88503 33.6005C5.83058 33.5823 5.77613 33.5642 5.72003 33.5455C5.86523 33.4003 6.01043 33.2551 6.16003 33.1055Z" fill="#2F4250"/>
    <path d="M6.27001 34.9238C6.30631 34.9238 6.34261 34.9238 6.38001 34.9238C6.30401 35.1004 6.21918 35.2015 6.07063 35.3226C6.01852 35.3655 6.01852 35.3655 5.96536 35.4094C5.93885 35.4306 5.91233 35.4519 5.88501 35.4738C5.92361 35.2959 5.96007 35.2048 6.10501 35.0888C6.14131 35.0888 6.17761 35.0888 6.21501 35.0888C6.23316 35.0344 6.25131 34.9799 6.27001 34.9238Z" fill="#2A3E4B"/>
    <path d="M4.28997 36.7422C4.32627 36.7785 4.36257 36.8148 4.39997 36.8522C4.25477 36.9974 4.10957 37.1426 3.95997 37.2922C3.94182 37.2559 3.92367 37.2196 3.90497 37.1822C3.94127 37.1277 3.97757 37.0733 4.01497 37.0172C4.05127 37.0172 4.08757 37.0172 4.12497 37.0172C4.14198 36.982 4.159 36.9469 4.17653 36.9106C4.23497 36.7972 4.23497 36.7972 4.28997 36.7422Z" fill="#2A3E4B"/>
    <path d="M8.085 39.4355C8.1213 39.4537 8.1576 39.4718 8.195 39.4905C8.06795 39.6176 7.9409 39.7446 7.81 39.8755C7.79185 39.8211 7.7737 39.7666 7.755 39.7105C7.8639 39.6198 7.9728 39.529 8.085 39.4355Z" fill="#F89254"/>
    <path d="M4.95 38.2773C4.87336 38.4625 4.78615 38.5516 4.62 38.6623C4.62 38.4973 4.62 38.4973 4.72312 38.377C4.84 38.2773 4.84 38.2773 4.95 38.2773Z" fill="#2A3E4B"/>
    <path d="M4.78496 36.3008C4.82126 36.3371 4.85756 36.3734 4.89496 36.4108C4.76791 36.5378 4.64086 36.6649 4.50996 36.7958C4.49181 36.7413 4.47366 36.6869 4.45496 36.6308C4.49126 36.6308 4.52756 36.6308 4.56496 36.6308C4.60126 36.5582 4.63756 36.4856 4.67496 36.4108C4.71126 36.4108 4.74756 36.4108 4.78496 36.4108C4.78496 36.3745 4.78496 36.3382 4.78496 36.3008Z" fill="#2A3E4B"/>
    <path d="M5.66495 33.6035C5.7194 33.6217 5.77385 33.6398 5.82995 33.6585C5.72105 33.7674 5.61215 33.8763 5.49995 33.9885C5.46365 33.9704 5.42735 33.9522 5.38995 33.9335C5.4807 33.8246 5.57145 33.7157 5.66495 33.6035Z" fill="#2F4250"/>
    <path d="M4.39993 40.4238C4.45438 40.442 4.50883 40.4601 4.56493 40.4788C4.47564 40.5728 4.38381 40.6644 4.28993 40.7538C4.25363 40.7538 4.21733 40.7538 4.17993 40.7538C4.24328 40.6181 4.29256 40.5312 4.39993 40.4238Z" fill="#2A3E4B"/>
    <path d="M5.72 39.2715C5.77445 39.2896 5.8289 39.3078 5.885 39.3265C5.69442 39.4898 5.69442 39.4898 5.5 39.6565C5.51815 39.5839 5.5363 39.5113 5.555 39.4365C5.60945 39.4183 5.6639 39.4002 5.72 39.3815C5.72 39.3452 5.72 39.3089 5.72 39.2715Z" fill="#2A3E4B"/>
    <path d="M8.74502 36.6855C8.79947 36.7037 8.85392 36.7218 8.91002 36.7405C8.82074 36.8345 8.7289 36.9261 8.63502 37.0155C8.59872 37.0155 8.56242 37.0155 8.52502 37.0155C8.58837 36.8798 8.63766 36.7929 8.74502 36.6855Z" fill="#2A3E4B"/>
    <path d="M8.10057 36.0376C8.22189 36.0375 8.34318 36.0365 8.46449 36.0354C8.54133 36.0353 8.61817 36.0352 8.69501 36.0351C8.76517 36.0349 8.83532 36.0347 8.9076 36.0344C9.07486 36.0478 9.07486 36.0478 9.18486 36.1578C9.21064 36.282 9.21064 36.282 9.18486 36.4328C9.08698 36.5525 8.99459 36.6516 8.88236 36.7559C8.85189 36.7852 8.82143 36.8145 8.79004 36.8447C8.56125 37.0631 8.32609 37.2732 8.08486 37.4778C7.94942 37.5944 7.81432 37.7114 7.67923 37.8284C7.6433 37.8595 7.60736 37.8906 7.57033 37.9226C7.32083 38.1389 7.07433 38.3582 6.82953 38.5797C6.58798 38.7979 6.34243 39.0112 6.09455 39.2221C5.77496 39.4942 5.45776 39.7678 5.14923 40.0525C5.12204 40.0775 5.09485 40.1026 5.06684 40.1284C4.99116 40.1982 4.91551 40.268 4.83986 40.3378C4.28061 40.8532 3.77898 41.1938 3.0008 41.18C2.95113 41.1802 2.90147 41.1803 2.8503 41.1805C2.54237 41.1781 2.27535 41.1395 1.97986 41.0528C2.01145 40.8601 2.07446 40.7753 2.21726 40.6444C2.2548 40.6096 2.29234 40.5748 2.33102 40.539C2.37055 40.5032 2.41007 40.4675 2.4508 40.4306C2.50785 40.3779 2.50785 40.3779 2.56606 40.3242C2.79134 40.1169 3.02074 39.9148 3.25159 39.7138C3.4047 39.5789 3.55324 39.4393 3.70205 39.2997C3.97283 39.0472 4.25271 38.8108 4.54144 38.5789C4.69349 38.4523 4.83088 38.3168 4.96833 38.1748C5.09954 38.0429 5.23985 37.9228 5.38062 37.8014C5.51352 37.6859 5.64425 37.5683 5.77486 37.4503C5.93397 37.3066 6.09382 37.1641 6.25611 37.024C6.50993 36.8036 6.75421 36.5729 6.99877 36.3423C7.0309 36.3122 7.06304 36.2821 7.09615 36.251C7.13947 36.2102 7.13947 36.2102 7.18367 36.1686C7.42538 35.9599 7.79753 36.0376 8.10057 36.0376Z" fill="#8EA249"/>
    <path d="M6.21465 33.8118C6.33561 33.8026 6.45649 33.7926 6.57738 33.7824C6.654 33.7765 6.73062 33.7707 6.80724 33.7649C6.87718 33.7594 6.94712 33.7539 7.01918 33.7483C7.18697 33.7491 7.18697 33.7491 7.30489 33.8505C7.3399 33.9724 7.3399 33.9724 7.32548 34.1248C7.23683 34.2515 7.15212 34.3572 7.04801 34.4696C7.01982 34.5011 6.99164 34.5326 6.9626 34.565C6.75079 34.8 6.53202 35.0271 6.30678 35.2492C6.18045 35.3756 6.05449 35.5024 5.92854 35.6292C5.89503 35.6629 5.86152 35.6966 5.827 35.7313C5.59438 35.9656 5.36498 36.2027 5.13745 36.442C4.91291 36.6776 4.68402 36.9087 4.45262 37.1376C4.1543 37.4329 3.85846 37.7294 3.57211 38.0364C3.54687 38.0634 3.52164 38.0904 3.49563 38.1182C3.42539 38.1935 3.35518 38.2688 3.28496 38.344C2.76586 38.8999 2.29113 39.2771 1.5141 39.3215C1.46459 39.3254 1.41507 39.3293 1.36406 39.3333C1.05681 39.3539 0.787656 39.3355 0.486504 39.2711C0.50358 39.0766 0.560064 38.9873 0.69267 38.8461C0.727502 38.8086 0.762335 38.7711 0.798222 38.7325C0.83496 38.6938 0.871698 38.6552 0.909549 38.6154C0.9625 38.5586 0.9625 38.5586 1.01652 38.5006C1.22566 38.2771 1.43929 38.0584 1.65444 37.8407C1.79702 37.6947 1.93469 37.5444 2.07264 37.394C2.32376 37.122 2.58516 36.8653 2.85572 36.6124C2.99787 36.4748 3.12473 36.3293 3.25117 36.1774C3.37214 36.0362 3.50306 35.9059 3.63435 35.7742C3.75824 35.6492 3.87979 35.5221 4.0012 35.3947C4.14912 35.2395 4.29786 35.0854 4.4492 34.9336C4.68581 34.6948 4.91213 34.4464 5.13874 34.1981C5.16854 34.1657 5.19833 34.1333 5.22902 34.0999C5.26917 34.0559 5.26917 34.0559 5.31012 34.0111C5.53554 33.7849 5.91246 33.8345 6.21465 33.8118Z" fill="#759DA9"/>
    <path d="M15.015 31.1855C15.0513 31.1855 15.0876 31.1855 15.125 31.1855C15.049 31.3621 14.9642 31.4633 14.8156 31.5843C14.7635 31.6273 14.7635 31.6273 14.7104 31.6711C14.6838 31.6924 14.6573 31.7136 14.63 31.7355C14.63 31.6811 14.63 31.6266 14.63 31.5705C14.7198 31.4949 14.8116 31.4217 14.905 31.3505C14.9413 31.2961 14.9776 31.2416 15.015 31.1855Z" fill="#2A3E4B"/>
    <path d="M15.95 29.5898C15.95 29.7548 15.95 29.7548 15.8744 29.8477C15.785 29.9198 15.785 29.9198 15.675 29.9198C15.6569 29.9924 15.6387 30.065 15.62 30.1398C15.5837 30.1398 15.5474 30.1398 15.51 30.1398C15.5888 29.8642 15.7292 29.7579 15.95 29.5898Z" fill="#2A3E4B"/>
    <path d="M17.2701 29.5352C17.4288 29.5522 17.4911 29.591 17.6105 29.7002C17.7417 29.9174 17.7543 30.1103 17.7651 30.3602C17.7288 30.3602 17.6925 30.3602 17.6551 30.3602C17.6537 30.3217 17.6523 30.2833 17.6508 30.2437C17.6477 30.1937 17.6446 30.1436 17.6414 30.092C17.6388 30.0423 17.6363 29.9925 17.6337 29.9412C17.6136 29.8007 17.6136 29.8007 17.4876 29.7375C17.4521 29.7252 17.4167 29.7129 17.3801 29.7002C17.3801 29.6639 17.3801 29.6276 17.3801 29.5902C17.3438 29.572 17.3075 29.5539 17.2701 29.5352Z" fill="#2A3E4B"/>
    <path d="M9.51502 26.0156C9.55132 26.0338 9.58762 26.0519 9.62502 26.0706C9.26215 26.4051 8.8989 26.7384 8.52502 27.0606C8.52502 26.8609 8.58438 26.8164 8.72068 26.6799C8.76166 26.6403 8.76166 26.6403 8.80346 26.6C8.83089 26.573 8.85831 26.5461 8.88657 26.5183C9.08399 26.3272 9.28452 26.1642 9.51502 26.0156Z" fill="#2A3E4B"/>
</svg>


