<svg width="44" height="44" viewBox="0 0 44 44" fill="none" xmlns="http://www.w3.org/2000/svg">
  <g clip-path="url(#clip0_127_907)">
    <circle cx="22" cy="22" r="21.5" fill="#2F4250" stroke="#FCE1B6"/>
    <path d="M36.8156 7.98899C37.1943 8.37193 37.3227 8.765 37.3227 9.29827C37.3201 9.39546 37.3201 9.39546 37.3175 9.49461C37.3159 9.59691 37.3159 9.59691 37.3143 9.70127C37.3009 10.2615 37.241 10.7933 37.125 11.3406C37.1147 11.3928 37.1043 11.445 37.0937 11.4988C36.8309 12.8174 36.3947 14.092 35.805 15.3006C35.7793 15.354 35.7535 15.4074 35.727 15.4625C35.1175 16.7163 34.3844 17.9088 33.495 18.9856C33.4715 19.0142 33.4479 19.0429 33.4237 19.0724C32.6602 19.9996 31.8386 20.9338 30.8905 21.6758C30.7566 21.7814 30.6277 21.8914 30.4991 22.0034C30.0361 22.405 29.5409 22.7581 29.04 23.1106C29.0038 23.1364 28.9676 23.1621 28.9303 23.1887C27.6906 24.0719 26.3625 24.8104 25.0044 25.4927C24.9479 25.5212 24.9479 25.5212 24.8903 25.5502C23.6172 26.1906 23.6172 26.1906 23.375 26.1906C23.3695 26.1509 23.364 26.1113 23.3583 26.0705C23.073 24.4429 22.1834 22.9766 21.065 21.7906C21.0308 21.7535 20.9967 21.7164 20.9615 21.6782C20.2102 20.8908 19.2318 20.2989 18.2299 19.8896C18.0521 19.8156 17.8812 19.7338 17.71 19.6456C17.7856 19.4848 17.8725 19.3454 17.9779 19.2025C18.0092 19.1601 18.0405 19.1176 18.0727 19.0738C18.1229 19.0063 18.1229 19.0063 18.1741 18.9374C18.2261 18.8672 18.2261 18.8672 18.2791 18.7955C18.5271 18.4619 18.7803 18.1331 19.039 17.8078C19.1536 17.6636 19.2664 17.5182 19.3785 17.3721C19.9126 16.6767 20.4771 16.0155 21.0663 15.3663C21.1684 15.2529 21.2681 15.1379 21.3675 15.0221C21.5472 14.8154 21.7403 14.6243 21.9354 14.4322C22.0417 14.3241 22.1398 14.2135 22.2372 14.0974C22.4263 13.8766 22.6382 13.6836 22.8539 13.4895C23.0156 13.3437 23.172 13.1951 23.3235 13.0387C23.531 12.8282 23.7553 12.6438 23.9858 12.459C24.1434 12.3319 24.297 12.2009 24.451 12.0693C26.3184 10.5159 28.5152 9.33981 30.8 8.53555C30.8604 8.5141 30.8604 8.5141 30.922 8.49221C31.1549 8.40994 31.3891 8.33347 31.625 8.26055C31.6605 8.24953 31.6959 8.2385 31.7324 8.22714C32.2642 8.06398 32.8014 7.94136 33.3472 7.8343C33.4055 7.82271 33.4639 7.81112 33.524 7.79918C34.4683 7.62054 35.9996 7.35294 36.8156 7.98899Z" fill="#F89254"/>
    <path d="M18.535 16.238C18.4455 16.5174 18.2778 16.7304 18.1053 16.9633C18.0402 17.0524 17.975 17.1415 17.9098 17.2305C17.8599 17.2986 17.8599 17.2986 17.8089 17.3679C17.6861 17.5356 17.5647 17.7043 17.4433 17.8731C17.133 18.3045 16.8187 18.7329 16.5028 19.1603C16.2226 19.5399 15.9476 19.9229 15.675 20.308C15.7298 20.3187 15.7845 20.3295 15.8409 20.3406C17.0974 20.6034 18.3098 21.1427 19.305 21.958C19.3339 21.9811 19.3628 22.0042 19.3926 22.028C20.4168 22.8474 21.1873 23.8418 21.725 25.038C21.7508 25.0943 21.7766 25.1507 21.8032 25.2088C22.1946 26.1038 22.4651 27.0792 22.44 28.063C22.4894 28.0363 22.5387 28.0097 22.5896 27.9822C23.1033 27.7058 23.6224 27.442 24.145 27.183C25.0706 26.7239 25.0706 26.7239 25.9875 26.248C26.3992 26.0299 26.8129 25.8159 27.2285 25.6052C27.3155 25.5604 27.3155 25.5604 27.4042 25.5148C27.4849 25.4741 27.4849 25.4741 27.5673 25.4326C27.6394 25.396 27.6394 25.396 27.7129 25.3586C27.7516 25.3435 27.7902 25.3285 27.83 25.313C27.8663 25.3311 27.9026 25.3493 27.94 25.368C27.858 25.7132 27.7759 26.0584 27.6936 26.4036C27.6657 26.5206 27.6379 26.6377 27.6101 26.7548C27.4701 27.3443 27.3287 27.9326 27.1696 28.5173C27.1047 28.7619 27.0447 29.0075 26.9848 29.2534C26.9505 29.3928 26.916 29.5321 26.8816 29.6714C26.8584 29.766 26.8354 29.8606 26.8128 29.9554C26.6267 30.7325 26.4444 31.351 25.74 31.803C25.5261 31.9332 25.3103 32.0596 25.0933 32.1848C24.7767 32.3682 24.4645 32.5587 24.1521 32.7492C23.6047 33.0831 23.0555 33.4137 22.5028 33.7387C22.1311 33.9575 21.7611 34.1792 21.3916 34.4017C20.8122 34.7505 20.2295 35.0935 19.6451 35.4338C19.2683 35.6537 18.895 35.8782 18.5247 36.1089C18.0399 36.4038 17.6195 36.5151 17.0535 36.3817C16.8751 36.3089 16.7837 36.2436 16.665 36.093C16.5767 35.8279 16.577 35.6248 16.6822 35.3642C16.8217 35.1423 17.0129 34.9689 17.1997 34.787C18.4299 33.5837 19.0256 31.9449 19.0472 30.2423C19.0393 28.54 18.2521 27.0266 17.105 25.808C17.0726 25.7714 17.0402 25.7348 17.0068 25.6971C16.3235 24.9582 15.3193 24.4245 14.355 24.158C14.2815 24.1362 14.2815 24.1362 14.2066 24.1139C12.7181 23.6855 10.9941 23.8894 9.62502 24.598C9.55536 24.6335 9.48568 24.6689 9.41598 24.7043C9.38203 24.7216 9.34808 24.7389 9.3131 24.7566C8.7707 25.0318 8.31709 25.1581 7.70002 25.093C7.50408 25.0002 7.50408 25.0002 7.37002 24.873C7.32805 24.8344 7.28608 24.7958 7.24283 24.7561C7.0855 24.488 7.06367 24.2237 7.11801 23.9191C7.26505 23.4712 7.59951 23.1261 7.89585 22.7699C8.03843 22.5954 8.16789 22.4118 8.29901 22.2287C8.44073 22.0324 8.58578 21.8387 8.73127 21.6452C8.75927 21.6079 8.78726 21.5707 8.81611 21.5323C8.87356 21.4559 8.93102 21.3795 8.98849 21.3031C9.07407 21.1892 9.15945 21.0752 9.24475 20.9611C9.53701 20.5703 9.83146 20.1814 10.1295 19.7949C10.3285 19.5367 10.527 19.2779 10.725 19.0189C10.7631 18.9692 10.8011 18.9195 10.8403 18.8683C11.0572 18.5836 11.267 18.2954 11.471 18.0014C11.7998 17.5336 12.157 17.2187 12.7275 17.0875C12.8653 17.0655 13.0029 17.0479 13.1416 17.032C13.2447 17.0187 13.3478 17.0053 13.451 16.9919C13.5272 16.9821 13.5272 16.9821 13.605 16.9722C13.8089 16.9452 14.0114 16.912 14.2141 16.8773C14.2523 16.8709 14.2905 16.8644 14.3299 16.8577C14.4153 16.8432 14.5008 16.8286 14.5862 16.814C14.8827 16.7638 15.1793 16.7146 15.4759 16.6653C15.6504 16.6363 15.8249 16.6072 15.9994 16.5781C16.0653 16.5671 16.1312 16.5561 16.199 16.5448C16.3217 16.5244 16.4445 16.5038 16.5671 16.4833C16.9169 16.4247 17.2667 16.3675 17.6172 16.3136C17.6635 16.3062 17.7097 16.2988 17.7574 16.2913C18.0201 16.2511 18.2693 16.2301 18.535 16.238Z" fill="#F89254"/>
    <path d="M30.9547 12.4749C31.2631 12.7145 31.4803 12.9865 31.6801 13.3205C31.7091 13.3689 31.7382 13.4173 31.7681 13.4672C32.0709 14.0667 32.044 14.8316 31.8691 15.4689C31.5764 16.2718 31.0645 16.7994 30.3051 17.1705C30.1567 17.2241 30.0104 17.269 29.8575 17.3076C29.7551 17.3264 29.7551 17.3264 29.7001 17.3905C28.7768 17.457 28.0474 17.3 27.3286 16.686C26.7446 16.1384 26.4665 15.4259 26.4276 14.6302C26.4663 13.8359 26.8778 13.1375 27.4451 12.6055C27.6375 12.4563 27.8352 12.3346 28.0501 12.2205C28.1136 12.1847 28.1136 12.1847 28.1785 12.1481C29.0669 11.7355 30.1735 11.9583 30.9547 12.4749Z" fill="#FCE1B6"/>
    <path d="M22.935 13.4316C22.9713 13.4498 23.0076 13.4679 23.045 13.4866C22.6639 13.8678 22.2827 14.2489 21.89 14.6416C21.8537 14.6235 21.8174 14.6053 21.78 14.5866C21.9 14.4557 22.0204 14.3252 22.141 14.1948C22.1745 14.1582 22.208 14.1216 22.2425 14.0839C22.4608 13.8482 22.6873 13.6363 22.935 13.4316Z" fill="#F89254"/>
    <path d="M19.91 16.6777C19.9644 16.6959 20.0189 16.714 20.075 16.7327C19.9479 16.8779 19.8209 17.0231 19.69 17.1727C19.6537 17.1546 19.6174 17.1364 19.58 17.1177C19.6889 16.9725 19.7978 16.8273 19.91 16.6777Z" fill="#F89254"/>
    <path d="M21.45 14.918C21.5044 14.9361 21.5589 14.9543 21.615 14.973C21.5061 15.0819 21.3972 15.1908 21.285 15.303C21.2487 15.2848 21.2124 15.2667 21.175 15.248C21.2657 15.1391 21.3565 15.0302 21.45 14.918Z" fill="#F89254"/>
    <path d="M17.6551 34.2773C17.7095 34.2955 17.764 34.3136 17.8201 34.3323C17.7112 34.4412 17.6023 34.5501 17.4901 34.6623C17.4538 34.6442 17.4175 34.626 17.3801 34.6073C17.4708 34.4984 17.5616 34.3895 17.6551 34.2773Z" fill="#F89254"/>
    <path d="M13.0901 25.2592C13.2257 25.3714 13.2527 25.417 13.3101 25.5892C13.3761 26.6231 13.3761 26.6231 13.0901 26.9642C12.764 27.2903 12.4026 27.4387 11.966 27.5623C11.6744 27.6473 11.4522 27.7583 11.2093 27.9394C11.1101 28.0092 11.1101 28.0092 10.9451 28.0642C10.8886 28.1585 10.8886 28.1585 10.8351 28.2842C10.779 28.3786 10.7222 28.4724 10.6647 28.5659C10.4725 28.966 10.5096 29.5267 10.6219 29.9445C10.8965 30.7231 11.4903 31.3462 12.2144 31.7307C12.8137 32.0047 13.492 32.09 14.1282 31.8833C14.5952 31.6852 14.9678 31.3898 15.1801 30.9242C15.2362 30.7772 15.2888 30.629 15.3416 30.4808C15.4946 30.0561 15.6456 29.7517 16.0532 29.5251C16.2923 29.431 16.5309 29.4163 16.7854 29.4117C16.8226 29.4107 16.8599 29.4096 16.8983 29.4086C17.1749 29.4121 17.3309 29.489 17.5451 29.6592C17.8212 29.9449 17.7851 30.3748 17.786 30.7506C17.7627 31.8639 17.2912 32.9968 16.5001 33.7842C15.5928 34.5768 14.5078 34.9475 13.3102 34.8945C13.0666 34.8717 12.865 34.7741 12.6501 34.6642C12.173 34.4472 12.173 34.4472 11.6601 34.4442C11.2023 34.6485 10.8389 35.0684 10.4801 35.409C10.283 35.5949 10.0769 35.7702 9.87091 35.9461C9.7729 36.0298 9.67492 36.1136 9.57695 36.1973C9.54346 36.2259 9.50998 36.2545 9.47547 36.284C9.28094 36.4506 9.08914 36.6195 8.89976 36.792C8.66658 37.0038 8.42446 37.2024 8.1796 37.4004C8.03439 37.5206 7.89437 37.6447 7.75507 37.7717C7.51858 37.9872 7.27332 38.1892 7.0246 38.3904C6.87939 38.5106 6.73937 38.6347 6.60007 38.7617C6.36358 38.9772 6.11832 39.1792 5.8696 39.3804C5.72439 39.5006 5.58437 39.6247 5.44507 39.7517C5.20765 39.968 4.96177 40.1714 4.71181 40.373C4.57178 40.4887 4.43766 40.6087 4.30382 40.7314C3.8283 41.1577 3.41484 41.2311 2.78423 41.2214C2.54317 41.2066 2.40318 41.1717 2.20007 41.0442C2.14562 40.9625 2.14562 40.9625 2.09007 40.8792C2.12999 40.8393 2.1699 40.7995 2.21103 40.7584C2.30657 40.6628 2.40187 40.5669 2.49677 40.4706C2.73582 40.2288 2.97711 39.9947 3.23519 39.7734C3.38294 39.645 3.52724 39.5129 3.67132 39.3804C3.69943 39.3546 3.72754 39.3288 3.7565 39.3021C3.8141 39.2491 3.87169 39.1961 3.92927 39.1431C4.0665 39.0169 4.2041 38.891 4.34164 38.7651C4.51485 38.6065 4.68777 38.4476 4.86005 38.288C5.14081 38.0279 5.42192 37.7693 5.71148 37.519C5.87256 37.3766 6.02994 37.2304 6.18757 37.0842C6.37803 36.9076 6.56853 36.7316 6.76507 36.5617C6.99136 36.366 7.21017 36.1624 7.42958 35.9591C7.61016 35.7918 7.79175 35.6259 7.97507 35.4617C8.06679 35.3792 8.15845 35.2967 8.25007 35.2142C8.27874 35.1884 8.30741 35.1626 8.33695 35.136C8.98685 34.6046 8.98685 34.6046 9.41539 33.9148C9.40215 33.6766 9.34272 33.5771 9.18507 33.3992C8.9602 33.2371 8.76626 33.1988 8.49714 33.24C8.06835 33.3939 7.73074 33.7988 7.41949 34.1196C7.28004 34.2593 7.13105 34.3862 6.98142 34.5149C6.87755 34.607 6.77984 34.7027 6.68257 34.8017C6.52038 34.9664 6.35047 35.1184 6.17554 35.2694C5.90913 35.5025 5.65029 35.7442 5.39007 35.9842C5.36104 36.011 5.33201 36.0377 5.30209 36.0653C5.02993 36.3162 4.7579 36.5674 4.48644 36.8191C4.45528 36.8479 4.42411 36.8768 4.392 36.9065C4.33349 36.9607 4.27502 37.015 4.21661 37.0692C4.06263 37.2118 3.90653 37.3513 3.74802 37.4887C3.51018 37.696 3.28116 37.9118 3.05257 38.1292C2.75586 38.4113 2.45499 38.6866 2.14507 38.9542C2.07401 39.016 2.00297 39.0779 1.93195 39.1398C1.71587 39.3278 1.56824 39.3603 1.28333 39.3594C1.07075 39.3259 0.972699 39.2156 0.825073 39.0642C0.842459 38.7658 1.01496 38.6199 1.21351 38.4179C1.28413 38.3443 1.35474 38.2706 1.42535 38.1969C1.4623 38.1587 1.49926 38.1205 1.53733 38.0811C1.72232 37.8892 1.90428 37.6945 2.08664 37.5001C2.16074 37.4214 2.23486 37.3427 2.309 37.264C2.85379 36.6855 3.3971 36.1057 3.93523 35.5209C4.07169 35.3727 4.2084 35.2247 4.34507 35.0767C4.4 35.0172 4.45493 34.9577 4.50986 34.8982C4.62054 34.7782 4.73126 34.6584 4.84201 34.5385C5.10772 34.2509 5.37312 33.963 5.63757 33.6742C5.87392 33.4161 6.11074 33.1584 6.34857 32.9017C6.49488 32.7437 6.64032 32.5849 6.78462 32.4251C6.82978 32.3754 6.82978 32.3754 6.87584 32.3246C6.9339 32.2607 6.99173 32.1965 7.0493 32.1321C7.11733 32.0573 7.18845 31.9855 7.26007 31.9142C7.29637 31.9142 7.33267 31.9142 7.37007 31.9142C7.38581 31.8818 7.40155 31.8494 7.41777 31.816C7.48007 31.6942 7.48007 31.6942 7.53894 31.6016C7.78184 31.1977 7.7529 30.7318 7.64507 30.2848C7.44106 29.3645 7.60734 28.3498 8.06144 27.5262C8.79343 26.3902 9.95259 25.5379 11.2746 25.234C12.6347 24.944 12.6347 24.944 13.0901 25.2592Z" fill="#F89254"/>
    <path d="M13.7107 35.0376C13.8321 35.0375 13.9533 35.0365 14.0747 35.0354C14.1515 35.0353 14.2283 35.0352 14.3052 35.0351C14.3753 35.0349 14.4455 35.0347 14.5178 35.0344C14.685 35.0478 14.685 35.0478 14.795 35.1578C14.8208 35.282 14.8208 35.282 14.795 35.4328C14.6971 35.5525 14.6048 35.6516 14.4925 35.7559C14.4621 35.7852 14.4316 35.8145 14.4002 35.8447C14.1714 36.0631 13.9363 36.2732 13.695 36.4778C13.5596 36.5944 13.4245 36.7114 13.2894 36.8284C13.2535 36.8595 13.2175 36.8906 13.1805 36.9226C12.931 37.1389 12.6845 37.3582 12.4397 37.5797C12.1981 37.7979 11.9526 38.0112 11.7047 38.2221C11.3851 38.4942 11.0679 38.7678 10.7594 39.0525C10.7322 39.0775 10.705 39.1026 10.677 39.1284C10.6013 39.1982 10.5257 39.268 10.45 39.3378C9.89078 39.8532 9.38915 40.1938 8.61096 40.18C8.5613 40.1802 8.51164 40.1803 8.46047 40.1805C8.15253 40.1781 7.88551 40.1395 7.59003 40.0528C7.62162 39.8601 7.68463 39.7753 7.82743 39.6444C7.86497 39.6096 7.90251 39.5748 7.94119 39.539C7.98071 39.5032 8.02024 39.4675 8.06096 39.4306C8.11802 39.3779 8.11802 39.3779 8.17623 39.3242C8.40151 39.1169 8.63091 38.9148 8.86175 38.7138C9.01487 38.5789 9.1634 38.4393 9.31221 38.2997C9.583 38.0472 9.86288 37.8108 10.1516 37.5789C10.3037 37.4523 10.4411 37.3168 10.5785 37.1748C10.7097 37.0429 10.85 36.9228 10.9908 36.8014C11.1237 36.6859 11.2544 36.5683 11.385 36.4503C11.5441 36.3066 11.704 36.1641 11.8663 36.024C12.1201 35.8036 12.3644 35.5729 12.6089 35.3423C12.6411 35.3122 12.6732 35.2821 12.7063 35.251C12.7496 35.2102 12.7496 35.2102 12.7938 35.1686C13.0356 34.9599 13.4077 35.0376 13.7107 35.0376Z" fill="#FCE1B6"/>
    <path d="M7.03996 36.3125C7.03996 36.4775 7.03996 36.4775 6.94714 36.5884C6.88419 36.6492 6.88419 36.6492 6.81996 36.7113C6.75211 36.777 6.75211 36.777 6.68289 36.844C6.52792 36.9884 6.36955 37.1278 6.20873 37.2655C6.10855 37.3543 6.01571 37.4469 5.92277 37.5431C5.76706 37.702 5.60154 37.8408 5.42777 37.9797C5.21906 38.1474 5.02687 38.3208 4.83996 38.5125C4.65948 38.6975 4.4754 38.8643 4.27277 39.0247C3.90164 39.3203 3.57517 39.6578 3.24496 39.9975C3.19051 39.9794 3.13606 39.9612 3.07996 39.9425C3.26641 39.7508 3.45459 39.5635 3.65746 39.3891C3.8782 39.1987 4.09102 39.0005 4.30371 38.8013C4.76672 38.3677 5.22994 37.9347 5.70943 37.5193C5.90277 37.348 6.09138 37.1716 6.28074 36.996C6.48696 36.805 6.69573 36.6176 6.90847 36.4339C6.95352 36.3948 6.99778 36.3547 7.03996 36.3125Z" fill="#8EA249"/>
    <path d="M2.69507 36.8633C2.69507 37.0581 2.6701 37.0747 2.54017 37.2094C2.50739 37.2438 2.47462 37.2783 2.44085 37.3138C2.40563 37.35 2.37042 37.3863 2.33414 37.4236C2.26276 37.4984 2.19143 37.5732 2.12015 37.6481C2.08601 37.6838 2.05188 37.7195 2.0167 37.7563C1.91294 37.8661 1.81336 37.9789 1.71539 38.0939C1.53852 38.3011 1.34333 38.4873 1.14519 38.674C1.04227 38.7915 0.994518 38.8521 0.990073 39.0083C1.0737 39.134 1.1307 39.1678 1.27796 39.201C1.55333 39.2074 1.71859 39.1925 1.93195 39.0083C1.98594 38.9545 2.03915 38.8999 2.09007 38.8433C2.12637 38.8614 2.16267 38.8796 2.20007 38.8983C2.12916 38.9614 2.05809 39.0244 1.98695 39.0873C1.92761 39.14 1.92761 39.14 1.86707 39.1937C1.67598 39.3537 1.52604 39.3593 1.28333 39.3585C1.07075 39.325 0.972699 39.2147 0.825073 39.0633C0.842458 38.7649 1.01495 38.619 1.21351 38.417C1.28327 38.3443 1.35302 38.2715 1.42277 38.1987C1.45962 38.1607 1.49647 38.1226 1.53443 38.0834C1.73436 37.8757 1.93082 37.6649 2.12789 37.4545C2.20139 37.3763 2.27493 37.2981 2.34853 37.2199C2.37963 37.1869 2.41073 37.1538 2.44278 37.1198C2.52563 37.0329 2.60984 36.9478 2.69507 36.8633Z" fill="#2A3E4B"/>
    <path d="M4.94998 34.3867C5.00443 34.4049 5.05888 34.423 5.11498 34.4417C4.39553 35.2252 3.67371 36.0059 2.91498 36.7517C2.91498 36.5867 2.91498 36.5867 3.03379 36.4537C3.08659 36.4025 3.13982 36.3518 3.19342 36.3014C3.40904 36.0947 3.609 35.8827 3.80423 35.6567C4.00814 35.424 4.22323 35.2016 4.43618 34.9772C4.61637 34.7864 4.79002 34.5953 4.94998 34.3867Z" fill="#2A3E4B"/>
    <path d="M2.91503 40.0527C2.95133 40.0709 2.98763 40.089 3.02503 40.1077C2.77093 40.3618 2.51683 40.6159 2.25503 40.8777C2.47704 41.0257 2.63877 41.0498 2.90214 41.0481C2.97552 41.0478 2.97552 41.0478 3.05038 41.0476C3.101 41.0471 3.15162 41.0466 3.20378 41.0462C3.25525 41.0459 3.30672 41.0457 3.35975 41.0454C3.48651 41.0448 3.61327 41.0439 3.74003 41.0427C3.72188 41.079 3.70373 41.1153 3.68503 41.1527C3.29899 41.2647 2.72678 41.2886 2.34784 41.1355C2.20003 41.0427 2.20003 41.0427 2.09003 40.8777C2.36503 40.6027 2.64003 40.3277 2.91503 40.0527Z" fill="#8EA249"/>
    <path d="M4.50996 38.623C4.54626 38.6412 4.58256 38.6593 4.61996 38.678C4.35348 38.9501 4.08387 39.2127 3.79474 39.4605C3.60291 39.6309 3.42418 39.8145 3.24496 39.998C3.19051 39.9799 3.13606 39.9617 3.07996 39.943C3.30489 39.7118 3.53603 39.4924 3.78035 39.2818C4.02725 39.0664 4.26806 38.844 4.50996 38.623Z" fill="#8EA249"/>
    <path d="M8.35997 35.1035C8.41442 35.1217 8.46887 35.1398 8.52497 35.1585C8.11159 35.5818 7.68393 35.9658 7.20497 36.3135C7.16867 36.2954 7.13237 36.2772 7.09497 36.2585C7.12702 36.2298 7.15906 36.2011 7.19208 36.1715C7.4646 35.9268 7.73595 35.681 8.00591 35.4335C8.03475 35.4071 8.06358 35.3807 8.0933 35.3534C8.22843 35.2304 8.22843 35.2304 8.35997 35.1035Z" fill="#F89254"/>
    <path d="M2.69496 36.8633C2.69496 37.1464 2.45312 37.3092 2.26528 37.5061C2.20439 37.5719 2.20439 37.5719 2.14228 37.639C2.10311 37.6804 2.06394 37.7219 2.02358 37.7646C1.98757 37.8027 1.95157 37.8408 1.91448 37.8801C1.81496 37.9633 1.81496 37.9633 1.64996 37.9633C1.79315 37.8108 1.9364 37.6585 2.07965 37.5061C2.12024 37.4629 2.16083 37.4197 2.20265 37.3751C2.24182 37.3335 2.28099 37.2918 2.32135 37.2489C2.37535 37.1915 2.37535 37.1915 2.43045 37.1328C2.51732 37.0416 2.60538 36.9519 2.69496 36.8633Z" fill="#2A3E4B"/>
    <path d="M3.73998 35.709C3.77628 35.7453 3.81258 35.7816 3.84998 35.819C3.54143 36.1275 3.23288 36.4361 2.91498 36.754C2.91498 36.589 2.91498 36.589 3.03959 36.4502C3.0939 36.3975 3.14863 36.3452 3.20373 36.2934C3.39718 36.1085 3.57722 35.9221 3.73998 35.709Z" fill="#2A3E4B"/>
    <path d="M1.59506 38.0176C1.64951 38.0357 1.70396 38.0539 1.76006 38.0726C1.48506 38.3476 1.21006 38.6226 0.935059 38.8976C0.982034 38.6498 1.12632 38.5109 1.296 38.3338C1.3246 38.3033 1.35321 38.2729 1.38269 38.2414C1.45312 38.1665 1.52404 38.092 1.59506 38.0176Z" fill="#2A3E4B"/>
    <path d="M9.34996 34.168C9.38626 34.1861 9.42256 34.2043 9.45996 34.223C9.20689 34.5274 8.93944 34.7949 8.63496 35.048C8.59866 35.0298 8.56236 35.0117 8.52496 34.993C8.79721 34.7207 9.06946 34.4485 9.34996 34.168Z" fill="#F89254"/>
    <path d="M2.91503 40.0527C2.95133 40.0709 2.98763 40.089 3.02503 40.1077C2.77093 40.3618 2.51683 40.6159 2.25503 40.8777C2.30948 40.9594 2.30948 40.9594 2.36503 41.0427C2.25846 41.0221 2.25846 41.0221 2.14503 40.9877C2.12688 40.9514 2.10873 40.9151 2.09003 40.8777C2.36503 40.6027 2.64003 40.3277 2.91503 40.0527Z" fill="#2A3E4B"/>
    <path d="M7.03998 36.3125C7.03998 36.4775 7.03998 36.4775 6.9433 36.5922C6.90034 36.6338 6.85737 36.6753 6.81311 36.7181C6.76823 36.7616 6.72335 36.805 6.67711 36.8498C6.52734 36.9889 6.37494 37.1204 6.21498 37.2475C6.17868 37.2293 6.14238 37.2112 6.10498 37.1925C6.36054 36.9308 6.62134 36.68 6.89883 36.4416C6.94717 36.4 6.99489 36.3576 7.03998 36.3125Z" fill="#8EA249"/>
    <path d="M5.61006 35.543C5.66451 35.5611 5.71896 35.5793 5.77506 35.598C5.68717 35.6888 5.59886 35.7793 5.51037 35.8695C5.46124 35.9199 5.41211 35.9703 5.36148 36.0223C5.22506 36.148 5.22506 36.148 5.06006 36.203C5.06006 36.1667 5.06006 36.1304 5.06006 36.093C5.09636 36.093 5.13266 36.093 5.17006 36.093C5.1814 36.0635 5.19275 36.034 5.20443 36.0036C5.31196 35.8179 5.45508 35.6912 5.61006 35.543Z" fill="#2A3E4B"/>
    <path d="M7.75497 35.6523C7.77312 35.7068 7.79127 35.7612 7.80997 35.8173C7.7325 35.89 7.65448 35.9621 7.57622 36.0339C7.53283 36.0741 7.48944 36.1143 7.44474 36.1557C7.321 36.2526 7.24808 36.2902 7.09497 36.3123C7.31497 36.0923 7.53497 35.8723 7.75497 35.6523Z" fill="#F89254"/>
    <path d="M4.94995 34.3867C5.0044 34.4049 5.05885 34.423 5.11495 34.4417C4.96975 34.6051 4.82455 34.7684 4.67495 34.9367C4.6205 34.9186 4.56605 34.9004 4.50995 34.8817C4.65515 34.7184 4.80035 34.555 4.94995 34.3867Z" fill="#2A3E4B"/>
    <path d="M6.15997 33.123C6.19627 33.1412 6.23257 33.1593 6.26997 33.178C6.14292 33.3232 6.01587 33.4684 5.88497 33.618C5.83052 33.5999 5.77607 33.5817 5.71997 33.563C5.86517 33.4178 6.01037 33.2726 6.15997 33.123Z" fill="#F89254"/>
    <path d="M6.26995 34.9375C6.30625 34.9375 6.34255 34.9375 6.37995 34.9375C6.30395 35.1141 6.21912 35.2152 6.07057 35.3362C6.01846 35.3792 6.01846 35.3792 5.9653 35.423C5.93878 35.4443 5.91227 35.4656 5.88495 35.4875C5.92355 35.3096 5.96001 35.2185 6.10495 35.1025C6.14125 35.1025 6.17755 35.1025 6.21495 35.1025C6.2331 35.048 6.25125 34.9936 6.26995 34.9375Z" fill="#2A3E4B"/>
    <path d="M4.29003 36.7539C4.32633 36.7902 4.36263 36.8265 4.40003 36.8639C4.25483 37.0091 4.10963 37.1543 3.96003 37.3039C3.94188 37.2676 3.92373 37.2313 3.90503 37.1939C3.94133 37.1395 3.97763 37.085 4.01503 37.0289C4.05133 37.0289 4.08763 37.0289 4.12503 37.0289C4.14204 36.9937 4.15906 36.9586 4.17659 36.9223C4.23503 36.8089 4.23503 36.8089 4.29003 36.7539Z" fill="#2A3E4B"/>
    <path d="M15.0151 31.1973C15.0514 31.1973 15.0877 31.1973 15.1251 31.1973C15.0491 31.3738 14.9642 31.475 14.8157 31.596C14.7636 31.639 14.7636 31.639 14.7104 31.6828C14.6839 31.7041 14.6574 31.7254 14.6301 31.7473C14.6301 31.6928 14.6301 31.6384 14.6301 31.5823C14.7199 31.5067 14.8117 31.4334 14.9051 31.3623C14.9414 31.3078 14.9777 31.2534 15.0151 31.1973Z" fill="#F89254"/>
    <path d="M8.08507 39.4473C8.12137 39.4654 8.15767 39.4836 8.19507 39.5023C8.06802 39.6293 7.94097 39.7564 7.81007 39.8873C7.79192 39.8328 7.77377 39.7784 7.75507 39.7223C7.86397 39.6315 7.97287 39.5408 8.08507 39.4473Z" fill="#FCE1B6"/>
    <path d="M4.95 38.293C4.87336 38.4782 4.78615 38.5672 4.62 38.678C4.62 38.513 4.62 38.513 4.72312 38.3927C4.84 38.293 4.84 38.293 4.95 38.293Z" fill="#8EA249"/>
    <path d="M4.78496 36.3125C4.82126 36.3488 4.85756 36.3851 4.89496 36.4225C4.76791 36.5495 4.64086 36.6766 4.50996 36.8075C4.49181 36.753 4.47366 36.6986 4.45496 36.6425C4.49126 36.6425 4.52756 36.6425 4.56496 36.6425C4.60126 36.5699 4.63756 36.4973 4.67496 36.4225C4.71126 36.4225 4.74756 36.4225 4.78496 36.4225C4.78496 36.3862 4.78496 36.3499 4.78496 36.3125Z" fill="#2A3E4B"/>
    <path d="M5.66501 33.6172C5.71946 33.6353 5.77391 33.6535 5.83001 33.6722C5.72111 33.7811 5.61221 33.89 5.50001 34.0022C5.46371 33.984 5.42741 33.9659 5.39001 33.9472C5.48076 33.8383 5.57151 33.7294 5.66501 33.6172Z" fill="#F89254"/>
    <path d="M4.39999 40.4375C4.45444 40.4557 4.50889 40.4738 4.56499 40.4925C4.47571 40.5865 4.38387 40.6781 4.28999 40.7675C4.25369 40.7675 4.21739 40.7675 4.17999 40.7675C4.24334 40.6318 4.29262 40.5449 4.39999 40.4375Z" fill="#2A3E4B"/>
    <path d="M5.72 39.2832C5.77445 39.3014 5.8289 39.3195 5.885 39.3382C5.69443 39.5016 5.69443 39.5016 5.5 39.6682C5.51815 39.5956 5.5363 39.523 5.555 39.4482C5.60945 39.4301 5.6639 39.4119 5.72 39.3932C5.72 39.3569 5.72 39.3206 5.72 39.2832Z" fill="#2A3E4B"/>
    <path d="M8.74496 36.6973C8.79941 36.7154 8.85386 36.7336 8.90996 36.7523C8.82068 36.8463 8.72884 36.9379 8.63496 37.0273C8.59866 37.0273 8.56236 37.0273 8.52496 37.0273C8.58831 36.8915 8.63759 36.8046 8.74496 36.6973Z" fill="#2A3E4B"/>
    <path d="M8.26573 35.9966C8.38705 35.9965 8.50834 35.9955 8.62965 35.9944C8.70649 35.9943 8.78333 35.9942 8.86018 35.9941C8.93033 35.9939 9.00048 35.9937 9.07276 35.9934C9.24002 36.0068 9.24002 36.0068 9.35002 36.1168C9.3758 36.241 9.3758 36.241 9.35002 36.3918C9.25214 36.5115 9.15975 36.6106 9.04752 36.7149C9.01706 36.7442 8.98659 36.7735 8.9552 36.8037C8.72641 37.0221 8.49125 37.2322 8.25002 37.4368C8.11458 37.5534 7.97948 37.6704 7.84439 37.7874C7.80846 37.8185 7.77252 37.8496 7.7355 37.8816C7.48599 38.0979 7.23949 38.3172 6.99469 38.5387C6.75314 38.7568 6.50759 38.9702 6.25971 39.1811C5.94012 39.4532 5.62292 39.7268 5.31439 40.0115C5.28721 40.0365 5.26002 40.0616 5.232 40.0874C5.15632 40.1572 5.08067 40.227 5.00502 40.2968C4.44577 40.8122 3.94414 41.1528 3.16596 41.139C3.11629 41.1391 3.06663 41.1393 3.01546 41.1395C2.70753 41.1371 2.44051 41.0985 2.14502 41.0118C2.17661 40.819 2.23962 40.7343 2.38242 40.6034C2.41996 40.5686 2.4575 40.5338 2.49618 40.498C2.53571 40.4622 2.57523 40.4264 2.61596 40.3896C2.67301 40.3369 2.67301 40.3369 2.73122 40.2831C2.9565 40.0759 3.1859 39.8738 3.41675 39.6728C3.56986 39.5379 3.7184 39.3983 3.86721 39.2587C4.13799 39.0062 4.41787 38.7698 4.7066 38.5379C4.85865 38.4113 4.99604 38.2757 5.1335 38.1337C5.2647 38.0019 5.40501 37.8818 5.54578 37.7603C5.67868 37.6449 5.80941 37.5273 5.94002 37.4093C6.09914 37.2656 6.25899 37.1231 6.42127 36.983C6.6751 36.7626 6.91937 36.5319 7.16393 36.3013C7.19607 36.2712 7.2282 36.2411 7.26131 36.21C7.30463 36.1692 7.30463 36.1692 7.34883 36.1276C7.59054 35.9189 7.96269 35.9966 8.26573 35.9966Z" fill="#8EA249"/>
    <path d="M6.21459 33.8236C6.33555 33.8144 6.45643 33.8043 6.57732 33.7942C6.65394 33.7883 6.73055 33.7824 6.80718 33.7766C6.87712 33.7711 6.94706 33.7656 7.01912 33.76C7.1869 33.7608 7.1869 33.7608 7.30483 33.8623C7.33983 33.9842 7.33983 33.9842 7.32541 34.1365C7.23677 34.2632 7.15206 34.3689 7.04795 34.4813C7.01976 34.5128 6.99158 34.5443 6.96254 34.5767C6.75073 34.8117 6.53196 35.0388 6.30672 35.2609C6.18039 35.3873 6.05443 35.5141 5.92848 35.6409C5.89497 35.6746 5.86146 35.7083 5.82694 35.743C5.59431 35.9773 5.36492 36.2144 5.13739 36.4537C4.91285 36.6893 4.68396 36.9204 4.45256 37.1493C4.15424 37.4446 3.8584 37.7411 3.57205 38.0481C3.54681 38.0751 3.52158 38.1021 3.49557 38.13C3.42533 38.2052 3.35512 38.2805 3.2849 38.3558C2.7658 38.9116 2.29107 39.2888 1.51404 39.3332C1.46453 39.3371 1.41501 39.341 1.364 39.345C1.05675 39.3656 0.787595 39.3472 0.486443 39.2828C0.503519 39.0883 0.560003 38.999 0.692609 38.8578C0.727441 38.8203 0.762273 38.7828 0.798161 38.7442C0.834899 38.7056 0.871637 38.6669 0.909488 38.6271C0.962439 38.5703 0.962439 38.5703 1.01646 38.5124C1.2256 38.2888 1.43923 38.0701 1.65438 37.8524C1.79696 37.7064 1.93463 37.5561 2.07257 37.4057C2.3237 37.1337 2.5851 36.877 2.85566 36.6241C2.99781 36.4865 3.12467 36.3411 3.25111 36.1892C3.37208 36.0479 3.503 35.9176 3.63429 35.786C3.75818 35.6609 3.87973 35.5338 4.00114 35.4064C4.14906 35.2512 4.29779 35.0971 4.44914 34.9453C4.68575 34.7065 4.91207 34.4581 5.13868 34.2099C5.16847 34.1774 5.19826 34.145 5.22896 34.1116C5.2691 34.0676 5.2691 34.0676 5.31006 34.0228C5.53548 33.7966 5.91239 33.8462 6.21459 33.8236Z" fill="#759DA9"/>
    <path d="M15.9499 29.6035C15.9499 29.7685 15.9499 29.7685 15.8743 29.8613C15.7849 29.9335 15.7849 29.9335 15.6749 29.9335C15.6568 30.0061 15.6386 30.0787 15.6199 30.1535C15.5836 30.1535 15.5473 30.1535 15.5099 30.1535C15.5887 29.8779 15.7291 29.7716 15.9499 29.6035Z" fill="#F89254"/>
    <path d="M17.2701 29.5469C17.4287 29.5639 17.4911 29.6028 17.6104 29.7119C17.7416 29.9291 17.7542 30.122 17.7651 30.3719C17.7288 30.3719 17.6925 30.3719 17.6551 30.3719C17.6537 30.3334 17.6522 30.295 17.6508 30.2554C17.6477 30.2054 17.6445 30.1553 17.6413 30.1038C17.6388 30.054 17.6362 30.0042 17.6336 29.9529C17.6135 29.8125 17.6135 29.8125 17.4875 29.7493C17.4521 29.7369 17.4166 29.7246 17.3801 29.7119C17.3801 29.6756 17.3801 29.6393 17.3801 29.6019C17.3438 29.5837 17.3075 29.5656 17.2701 29.5469Z" fill="#F89254"/>
    <path d="M9.51496 26.0273C9.55126 26.0455 9.58756 26.0636 9.62496 26.0823C9.26209 26.4168 8.89884 26.7502 8.52496 27.0723C8.52496 26.8726 8.58431 26.8281 8.72062 26.6916C8.7616 26.6521 8.7616 26.6521 8.8034 26.6117C8.83083 26.5848 8.85825 26.5578 8.88651 26.53C9.08393 26.339 9.28446 26.1759 9.51496 26.0273Z" fill="#F89254"/>
  </g>
  <defs>
    <clipPath id="clip0_127_907">
      <rect width="44" height="44" fill="white"/>
    </clipPath>
  </defs>
</svg>


